# xmcd
#
# Track frame offsets:
# 150
# 24322
# 43255
# 77957
# 107072
# 133595
# 154287
# 174480
# 212065
# 253072
# 272550
# 293310
# 324297
#
# Disc length: 4619 seconds
#
#
# Revision: 0
# Processed by: cddbd v1.5.1PL0 Copyright (c) Steve Scherf et al.
# Submitted via: FreeRIP 2.941 
#
DISCID=b112090d
DTITLE=Various Artist - Classic Rock and Roll
DYEAR=1900
DGENRE=Rock and Roll
TTITLE0=Sea of Joy
TTITLE1=Sunshine Of Your Love
TTITLE2=Smoke On The Water
TTITLE3=Catch The Rainbow
TTITLE4=Music
TTITLE5=Tom Sawyer
TTITLE6=Nights In White Satin
TTITLE7=Everybody Needs A Friend
TTITLE8=Free Bird
TTITLE9=The Best Of Times
TTITLE10=Show Me The Way
TTITLE11=Love Is Like Oxygen
TTITLE12=Spring, Summer, Winter and Fall
EXTD=
EXTT0=
EXTT1=
EXTT2=
EXTT3=
EXTT4=
EXTT5=
EXTT6=
EXTT7=
EXTT8=
EXTT9=
EXTT10=
EXTT11=
EXTT12=
PLAYORDER=
